<svg xmlns="http://www.w3.org/2000/svg" shape-rendering="geometricPrecision" text-rendering="geometricPrecision"
     image-rendering="optimizeQuality" fill-rule="evenodd" clip-rule="evenodd" viewBox="0 0 384 511.4" width="200px">
    <defs>
        <linearGradient id="outer" gradientUnits="userSpaceOnUse" x1="163.52" y1="286.47" x2="163.52" y2="500.71">
            <stop offset="0" stop-color="#F33923"/>
            <stop offset="1" stop-color="#FF0000"/>
        </linearGradient>
        <linearGradient id="a" gradientUnits="userSpaceOnUse" x1="163.52" y1="286.47" x2="163.52" y2="500.71">
            <stop offset="0" stop-color="#F9BE10 "/>
            <stop offset="1" stop-color="#FB6404"/>
        </linearGradient>
    </defs>

    <style>
        @keyframes pulse {
        0% {
        transform: scale(1.1) translate( -10px,-80px);
        opacity: 1;
        rotate: 0deg;
        }
        50% {
        transform: scale(1.3) translate(-25px,-170px) ;
        opacity: 0.8;
        rotate: 5deg;
        }
        100% {
        transform: scale(1.1) translate(-10px,-80px);
        opacity: 1;
        rotate: 0deg;
        }
        }
        @keyframes moveAndMorph {
        0% {
        transform: translate(0,-5px) scale(1);
        rotate: 0deg;
        }
        50% {
        transform: translate(-15px,-20px) scale(1.02);
        rotate: -3deg;
        }
        100% {
        transform: translate(0,-5px) scale(1);
        rotate: 0deg;
        }
        }
        .outer-path {
        animation: moveAndMorph 2s infinite ease-in-out;
        transform: translateY(51.14px);
        }
        .gradient-path {
        animation: pulse 2s infinite ease-in-out;
        transform: translateY(-51.14px);
        }
    </style>
    <path class="outer-path" fill="url(#outer)"
          d="M77.46 228.43C65.33 119.85 128.78 43.48 247.72 0c-72.85 94.5 62.09 196.88 69.53 295.03 17.44-29.75 27.34-69.48 29.3-122.55 89.18 139.92 15.25 368.59-181.02 335.73-18.02-3.01-35.38-8.7-51.21-17.17C42.76 452.8 0 369.53 0 290c0-50.69 21.68-95.95 49.74-131.91 3.75 35.23 11.73 61.51 27.72 70.34z"/>
    <path class="gradient-path" fill="url(#a)"
          d="M139.16 372.49c-21.83-57.66-18.81-150.75 42.33-183.41.43 107.03 103.57 120.64 84.44 234.9 17.64-20.39 26.51-53.02 28.1-78.75 27.96 65.38 6.04 117.72-33.81 144.37-121.15 81-225.48-83.23-156.11-173.26 2.08 20.07 26.14 51.12 35.05 56.15z"/>
</svg>