<?xml version="1.0" standalone="no"?>
<!DOCTYPE svg PUBLIC "-//W3C//DTD SVG 20010904//EN"
 "http://www.w3.org/TR/2001/REC-SVG-20010904/DTD/svg10.dtd">
<svg version="1.0" xmlns="http://www.w3.org/2000/svg"
 width="500.000000pt" height="501.000000pt" viewBox="0 0 500.000000 501.000000"
 preserveAspectRatio="xMidYMid meet">

<g transform="translate(0.000000,501.000000) scale(0.100000,-0.100000)"
fill="#000000" stroke="none">
<path d="M1249 4680 c-103 -12 -192 -38 -211 -61 -10 -12 -18 -35 -18 -52 0
-27 35 -66 286 -318 248 -249 286 -290 281 -311 -9 -32 -488 -508 -512 -508
-12 0 -131 111 -306 287 -254 252 -291 286 -319 286 -50 0 -69 -28 -91 -139
-28 -131 -23 -347 10 -469 48 -175 172 -381 297 -493 125 -113 288 -202 444
-243 139 -36 369 -37 507 -3 17 5 35 -6 78 -47 l56 -53 -699 -700 c-656 -658
-700 -705 -728 -766 -24 -56 -28 -77 -28 -155 0 -151 15 -177 221 -386 191
-194 240 -229 351 -249 72 -13 132 -6 212 22 51 19 102 68 762 726 l708 707
692 -691 c667 -664 696 -692 763 -722 39 -17 103 -36 143 -42 234 -36 475 110
552 336 44 126 36 259 -22 388 -31 69 -56 96 -825 866 l-793 795 408 407 407
406 145 32 c82 18 152 40 162 49 32 31 341 623 341 654 0 24 -22 52 -135 163
-89 89 -142 134 -156 134 -29 0 -651 -330 -663 -352 -5 -10 -25 -84 -44 -165
l-34 -147 -403 -403 -403 -403 -153 153 c-84 83 -157 159 -162 168 -6 10 -5
30 1 51 5 20 13 79 18 132 53 556 -354 1052 -914 1116 -100 11 -130 11 -226 0z
m257 -155 c186 -33 328 -103 461 -228 207 -196 309 -472 273 -737 -34 -247
-45 -217 166 -430 l174 -176 -114 -113 -114 -114 -32 26 c-17 15 -40 27 -51
27 -39 0 -384 -91 -398 -105 -13 -13 -23 -7 -75 44 -37 34 -80 65 -109 76 -46
17 -52 17 -135 2 -110 -21 -270 -22 -370 -1 -262 54 -498 242 -613 488 -56
119 -71 189 -76 351 l-5 150 234 -232 c128 -127 249 -239 268 -248 48 -25 126
-24 175 2 22 12 153 135 296 280 260 263 279 287 279 359 0 72 -17 95 -262
341 -230 230 -240 242 -212 246 64 9 156 6 240 -8z m2782 -238 l72 -72 -136
-255 c-75 -140 -138 -257 -140 -259 -2 -2 -67 -19 -144 -37 -78 -18 -149 -39
-157 -46 -9 -7 -275 -271 -590 -587 l-574 -575 -82 82 -82 82 587 588 586 587
32 140 c17 77 37 145 43 152 12 11 497 273 507 273 3 0 38 -33 78 -73z m-2039
-1680 c6 -8 9 -17 6 -20 -3 -4 -2 -5 2 -2 11 8 43 -27 36 -39 -3 -6 -2 -7 2
-3 11 10 156 -133 148 -146 -3 -6 -1 -7 4 -4 12 7 46 -26 38 -36 -3 -4 -2 -5
2 -2 4 3 34 -22 68 -55 l60 -60 -34 -139 -33 -139 -73 -72 -73 -72 -291 293
c-160 161 -291 294 -291 295 0 2 34 35 75 75 l75 73 127 32 c71 17 131 32 134
33 4 1 12 -5 18 -12z m2294 -1647 c29 -58 32 -73 32 -155 0 -82 -3 -97 -33
-157 -91 -186 -313 -258 -493 -161 -30 16 -270 249 -719 698 -641 641 -673
675 -657 692 14 16 107 362 107 399 0 7 -12 27 -27 44 l-26 32 114 114 114
114 778 -777 c700 -700 781 -784 810 -843z m-2839 1318 c-5 -7 -3 -8 6 -3 8 5
28 -9 56 -40 38 -40 43 -50 32 -64 -12 -14 -11 -15 4 -2 16 12 24 7 78 -49 33
-34 57 -66 54 -71 -3 -5 -10 -6 -16 -3 -6 4 -8 3 -5 -3 7 -11 -516 -536 -526
-528 -4 3 -5 2 -2 -2 8 -11 -117 -133 -129 -126 -6 3 -7 2 -3 -2 10 -11 -623
-646 -636 -638 -6 3 -7 1 -4 -4 4 -6 -3 -19 -14 -29 -21 -19 -21 -18 -71 36
-28 30 -58 71 -66 90 -21 49 -20 146 2 190 25 47 47 71 59 63 6 -4 7 -1 3 6
-9 13 23 43 37 34 4 -2 6 -1 5 4 -6 16 41 65 54 57 7 -4 10 -3 5 1 -10 11 43
66 56 58 6 -3 7 -1 4 4 -8 13 82 105 94 97 5 -3 8 -1 7 3 -5 15 61 85 72 78 6
-4 9 -2 8 4 -4 15 123 141 135 134 6 -3 7 -1 4 4 -8 13 162 185 175 177 4 -3
7 -1 6 3 -5 15 61 85 72 78 6 -4 9 -2 8 4 -4 15 222 242 233 235 5 -3 8 -1 7
3 -5 15 61 85 72 78 6 -4 9 -2 8 4 -3 11 101 129 115 130 5 1 5 -4 1 -11z
m404 -389 c29 -28 49 -56 46 -60 -3 -5 -2 -8 3 -7 16 6 86 -60 78 -73 -5 -7
-4 -10 2 -6 6 4 20 -4 31 -16 l22 -23 -618 -615 c-670 -668 -636 -639 -748
-639 -63 1 -116 25 -182 85 l-53 48 27 28 c15 16 32 26 37 22 6 -3 7 -2 4 4
-7 11 66 86 76 78 4 -3 5 -2 2 2 -9 11 327 343 339 336 6 -3 8 -2 3 2 -10 11
53 76 66 68 6 -3 7 -2 4 4 -8 13 377 396 388 386 4 -4 5 -3 2 3 -6 10 300 324
316 324 4 0 7 3 6 6 -1 8 83 94 92 94 3 0 29 -23 57 -51z"/>
<path d="M4175 1041 c-147 -36 -224 -192 -161 -326 40 -87 115 -135 208 -135
172 0 285 173 214 325 -29 64 -82 110 -148 130 -56 16 -67 17 -113 6z m114
-178 c46 -52 7 -133 -66 -133 -67 0 -105 74 -67 128 34 48 92 50 133 5z"/>
</g>
</svg>
